PathFileType	4	(X/Y/Z)	Apose_0-50.trc
DataRate	CameraRate	NumFrames	NumMarkers	Units	OrigDataRate	OrigDataStartFrame	OrigNumFrames
30	30	8	22	m	30	20	50
Frame#	Time	Hip			RHip			RKnee			RAnkle			RBigToe			RSmallToe			RHeel			LHip			LKnee			LAnkle			LBigToe			LSmallToe			LHeel			Neck			Head			Nose			RShoulder			RElbow			RWrist			LShoulder			LElbow			LWrist		
		X1	Y1	Z1	X2	Y2	Z2	X3	Y3	Z3	X4	Y4	Z4	X5	Y5	Z5	X6	Y6	Z6	X7	Y7	Z7	X8	Y8	Z8	X9	Y9	Z9	X10	Y10	Z10	X11	Y11	Z11	X12	Y12	Z12	X13	Y13	Z13	X14	Y14	Z14	X15	Y15	Z15	X16	Y16	Z16	X17	Y17	Z17	X18	Y18	Z18	X19	Y19	Z19	X20	Y20	Z20	X21	Y21	Z21	X22	Y22	Z22
21	0.7	0.03330625670945081	0.9230779313785361	0.3572885786696745	0.02144934215185131	0.8872624793044227	0.46311936253256214	0.0014643367042047137	0.5085651976094876	0.49731521961366637	-0.006316669572079186	0.11353764926233065	0.5154487413804387	0.18876985238005028	0.0336321392826449	0.5588065717224505	0.14530128008833013	0.032717643709452945	0.6279459677378246	-0.04224816126086992	0.03990002799010874	0.5015003074494665	0.02692166277999696	0.8852024911619799	0.24524171065809824	0.008614522490456175	0.5102734207953974	0.2247637144410365	0.001531641716777482	0.12411229477584707	0.2049154468673624	0.21545849266294828	0.048763647130220314	0.18689796376196446	0.16482469895968813	0.03697616888287372	0.12324856521150455	-0.047614520770351026	0.05278730457478026	0.20052034543701927	0.05457379352320572	1.5790778542000423	0.3497640079043668	0.26421627950777726	1.764966335219798	0.3295639417637873	0.282415404478888	1.6049412624258024	0.3285267561614275	0.019620584684838724	1.4980542301888313	0.531322905786548	0.058258812765058024	1.2358871457568927	0.719048640985713	0.11733025929476126	1.0510400931060455	0.8899958775044557	0.013997612799337297	1.48287918136156	0.14716487761813307	0.025523490784456305	1.2277071335811838	0.0024135039223895714	0.07618802247803937	1.0172713823659343	-0.14985766601186631
22	0.7333333333333333	0.03334350725821179	0.9229300655817106	0.3570803303222574	0.021834586555447923	0.8869890412902783	0.46312355387722315	0.0018194728624622097	0.5089621870897628	0.49708655193289525	-0.005680583331808853	0.11191274697278555	0.515401194301277	0.18834470543104756	0.033427611837997945	0.5586990923671135	0.14468451577045796	0.033700514519417676	0.6278885474359759	-0.04111921735500554	0.03876329064469628	0.5001091314163326	0.026985797507220362	0.884547830474547	0.24547243394075308	0.00934284370916661	0.5099397147406007	0.22479163012949738	0.0018342837132497422	0.12373648213406964	0.20507615468644752	0.21616789860798208	0.04877190635127709	0.18677800234521708	0.1650851888223927	0.03728139431349567	0.12300796324000378	-0.046822057085514415	0.054344042138106514	0.20014720682096201	0.05618794782147148	1.5819692694961127	0.35036572475939465	0.26472241483330533	1.7665033817946747	0.3280679982701962	0.2716587943198539	1.6011613417450823	0.32726869265842096	0.020323164515469887	1.497809619170486	0.5316313605169287	0.06103673946153992	1.2354294303292939	0.7199076729530324	0.1173836912885811	1.0516422374666485	0.8892134417269005	0.0135537099656515	1.483304804922175	0.14596638424499928	0.026330620641456123	1.2283611708807625	0.0019296582978704368	0.07760893364454834	1.018056885641617	-0.15035805945704064
23	0.7666666666666667	0.03326501872650385	0.9229307220110591	0.3569218657188936	0.022348313534862545	0.8865283033384652	0.46305471149352373	0.002123532588436306	0.5092597739544913	0.49677433656077424	-0.005247000205555922	0.1108553759736403	0.515358626786147	0.1882523697635346	0.03336022597444925	0.5588514542958378	0.14448099136547451	0.034213887328949026	0.6277278569399475	-0.04046016550152999	0.03827911644547467	0.4992240547660184	0.027038949678503725	0.8839482366484649	0.2456795615984872	0.009995635994964096	0.5096367610859285	0.22470628236534415	0.001999658508099286	0.12345323435755647	0.20531553640119996	0.2169923446126374	0.04854591883554693	0.18686678457651257	0.16536478107709415	0.03724388923488081	0.12299829571901862	-0.04621940523820857	0.055325719666482136	0.20019718596677402	0.057130219845980344	1.5841945125568218	0.3507208004427368	0.2616363345711626	1.7671582457291874	0.3291417574808449	0.26729321574433523	1.6000710950877797	0.32699412534535277	0.020663889501261454	1.497545741978564	0.5319684851043448	0.06422859330792557	1.23588666213506	0.7198439575216494	0.11729993745602368	1.0521494347215758	0.8884932307143143	0.013268835635902096	1.483714748946462	0.14494269754698022	0.026986870079990323	1.2288378321993807	0.001596685102981589	0.07916432819551082	1.019105714375388	-0.15046621780817745
24	0.8	0.03311886842198674	0.9230722474135608	0.35680406198885134	0.022941598430599487	0.8858004969580946	0.46292790110500753	0.0024459681141293004	0.5093699901136393	0.49639845890985895	-0.005036321293740388	0.11037425605562624	0.5153523735996696	0.188493794032839	0.03341364399090706	0.5592878938305488	0.14459764721564436	0.03433249187868651	0.6276689497129964	-0.04029404950859476	0.038494731501393493	0.4989310879334847	0.02704572094166513	0.8834076359956815	0.24585733414873176	0.010438042059185436	0.5093739382068545	0.22461155644514316	0.002093678842730355	0.12322289616214689	0.20570098938509548	0.21774422033025506	0.04813649827571262	0.1871416279806326	0.16569915295425855	0.03689004311178422	0.12318091433665468	-0.04553362494164696	0.05613082333394359	0.20033366254450122	0.05670640877523332	1.584740892349985	0.3504627919168128	0.2559201064383431	1.766929490108811	0.3316206900525447	0.27083947754016063	1.6022668158127975	0.32793068813208265	0.020673895745531003	1.4972095277662	0.5323184317966302	0.06731737030094274	1.2371371549625994	0.7188797780269475	0.11708806517746305	1.0524682467097712	0.8879166420068106	0.013170305241998411	1.4841356205753378	0.14423126514035778	0.027385039976911562	1.22908777586326	0.0013758157199029854	0.08052264617592748	1.0202101238784502	-0.15034256788100167
25	0.8333333333333334	0.03301008740670903	0.9232780968749149	0.3566850281343553	0.023530331634725236	0.8849140835387661	0.4627405518055274	0.0027831967656113195	0.5092449723878326	0.4960014285137886	-0.004991800637198946	0.11031177272679021	0.5154330006049485	0.18906782132909547	0.03360802532260395	0.5599569335189417	0.144889034056786	0.03416463875267611	0.6278066154878357	-0.04032724579535006	0.03912449947535953	0.49902640778984936	0.027039881337271976	0.8829615073505117	0.24591242628358315	0.010618193401390022	0.5091331430600536	0.22460774377174245	0.002303540633906749	0.12288258835902466	0.20627699589217266	0.21823666467350808	0.047587389936520084	0.18758435180798477	0.16608582472601624	0.03636185360876226	0.12348646828870626	-0.04481427216319775	0.05670578824438723	0.2004923297224985	0.05495681254327618	1.583540213112788	0.34956957696861757	0.24975849634768357	1.7662703530548158	0.3339213176703105	0.280378580870564	1.6069262728910323	0.3298243763002904	0.0204914425089327	1.4968381855200192	0.5326268326622168	0.06983580985640334	1.2385577858732078	0.7175731905637592	0.1168253706612149	1.0524832367089105	0.8875521050453468	0.013310076224107303	1.4845890952398295	0.1438791552344885	0.027533471998467486	1.229158197922332	0.0012170151761568683	0.08127944034619751	1.0210098574273108	-0.15029756388988263
26	0.8666666666666667	0.03306867205704534	0.9234804676827163	0.35651158278548994	0.02405993394246554	0.8841211212075077	0.46250901912000875	0.003087406948683701	0.5089391420799567	0.49564349199752633	-0.005014426449241916	0.11049155674745152	0.515597275229069	0.1899264089735032	0.03395145166842987	0.5606519427633869	0.14521798483930592	0.03381919273149938	0.6280528718561528	-0.040375435196612554	0.039882429746855956	0.4992945843493383	0.027119267269963988	0.8826645737397085	0.2457359442423892	0.010619702864410985	0.5089435385355745	0.22471394764866606	0.002806835739516547	0.12226744324138861	0.20700522755325476	0.21833934885645845	0.04687880739598531	0.18817699959594597	0.1664719591126905	0.035817223157903096	0.12384707667237752	-0.04435439395975055	0.056760431891440165	0.20080731253505613	0.052622875125343124	1.5815002520023387	0.34839600384862707	0.24474083200940053	1.7657157150435985	0.3353897285337676	0.2920539869934385	1.612545767483596	0.33206247685314416	0.020258222215962348	1.4965418938501438	0.5328001513613395	0.07154057213263178	1.2395923325908726	0.7164986367580679	0.116637849538595	1.0521114528336162	0.8874289439485707	0.013700453483612044	1.4850619620042256	0.14383448770433416	0.02756669198406803	1.229144118139217	0.0010915127899607518	0.08129670424135063	1.021277799890397	-0.15049885578147934
27	0.9	0.033345741274370955	0.9236413048959417	0.3562464497705736	0.0245100908135535	0.883579971378114	0.4622691280436279	0.003322609321403112	0.5085957693690767	0.49536803400514773	-0.005005223619314277	0.11079719638106851	0.5157613472803579	0.19094531847101828	0.034345616971573976	0.5611106342712248	0.14554947748125383	0.03338220594753435	0.6282499437725796	-0.04049011792135982	0.04065250912071486	0.49960066271168907	0.027318074054807732	0.8825275772430391	0.24528886598416322	0.010567394256332338	0.5088729999572766	0.22485204863571098	0.003600180788845938	0.12140706771457781	0.20778928916990755	0.21802763088105426	0.04598863360837876	0.1888748767341627	0.16678429675548342	0.03533624734591615	0.12420395504154905	-0.04440616956840214	0.05613129549352693	0.20140909471775753	0.0504718058704689	1.5796042479061994	0.34734040724138204	0.24140009487953143	1.7655486063811006	0.33607033568220424	0.30097911333665206	1.6171218909104261	0.3338488189151198	0.020075012885620972	1.4963991416193985	0.5328003128310292	0.07241172916185427	1.240065105914727	0.7158815508874572	0.11665598209696554	1.0514081753343343	0.8874935373527557	0.014226204436674873	1.4854708139973014	0.14398109764519268	0.027652189055268644	1.2291102241049185	0.0009681944915622732	0.08075823771062188	1.0210716599643848	-0.15084325061742312
28	0.9333333333333332	0.03377479100395332	0.9237260568544547	0.355897062583085	0.024888955144205433	0.8832531274828385	0.4620570865438463	0.00349029892093548	0.5083738991741881	0.49518879211417793	-0.004928387320259087	0.11116464883097749	0.5158118158597316	0.19187971645980104	0.03458304051203727	0.5611381181730122	0.1459133909868225	0.032915857111467196	0.6283201229516098	-0.04065024044069981	0.04130750333097208	0.49976514821166734	0.02756859652597596	0.8824778535378618	0.2446371574955502	0.010568017267506391	0.5089270179245753	0.22491148083158488	0.004461460576880994	0.12058033471155763	0.20850791497034415	0.2174286387886977	0.045005308862268896	0.18956504752806266	0.1669749385930776	0.03494813712033128	0.12450987562462384	-0.045025689978053784	0.0548312471425035	0.20233398726660212	0.04889816358418669	1.5783262554473712	0.34661753778363846	0.23958863087504573	1.7657567002913224	0.3362175491987715	0.30284448728149943	1.6186774864517866	0.3345364112683809	0.01999910063489598	1.4964040268531804	0.5326973547235195	0.07249593622229779	1.2400556843206456	0.7156346852321599	0.11697297405703382	1.0505693635022222	0.8876390631704465	0.014711390849209933	1.485722979197815	0.1441842243608142	0.02787457843705909	1.2290741077931424	0.0008070340097513157	0.07994952898067614	1.02062576513306	-0.1511303895358282
